<svg id="レイヤー_1" data-name="レイヤー 1" xmlns="http://www.w3.org/2000/svg" width="40" height="40" viewBox="0 0 40 40"><title>アートボード 1 のコピー 3</title><path d="M34.68,27.38,21.74,2.53a1.88,1.88,0,0,0-2.53-.79L6.06,8.59a1.86,1.86,0,0,0-.79,2.52L18.2,36a1.87,1.87,0,0,0,2.53.8L33.88,29.9A1.87,1.87,0,0,0,34.68,27.38ZM18.42,32.22,7.82,11.86l13.07-6.8,10.6,20.35Z"/><polyline points="26.66 8.22 25.25 4.03 29.44 2.61" fill="none" stroke="#231815" stroke-linecap="round" stroke-linejoin="round"/><polyline points="13.9 32.13 15.28 36.34 11.07 37.72" fill="none" stroke="#231815" stroke-linecap="round" stroke-linejoin="round"/><path d="M25.39,4.22c.53.18,1.05.39,1.56.62a16.75,16.75,0,0,1,9.77,15.23c0,.55,0,1.1-.08,1.64a16.9,16.9,0,0,1-.58,3" fill="none"/><path d="M3.23,20.07q0-.75.06-1.47a17.1,17.1,0,0,1,.54-3L-.72,18,10.09,38.47,14.8,36A16.74,16.74,0,0,1,3.23,20.07Z" fill="none"/><path d="M3.83,15.63a17.1,17.1,0,0,0-.54,3q-.06.72-.06,1.47A16.74,16.74,0,0,0,14.8,36" fill="none" stroke="#231815" stroke-linecap="round" stroke-miterlimit="10"/><path d="M36.06,24.74a16.9,16.9,0,0,0,.58-3c0-.54.08-1.09.08-1.64A16.75,16.75,0,0,0,27,4.84c-.51-.23-1-.44-1.56-.62" fill="none" stroke="#231815" stroke-linecap="round" stroke-miterlimit="10"/></svg>